# xmcd CD database file
#
# Track frame offsets:
#	150
#	13866
#	24957
#	40391
#	53239
#	65973
#	66892
#	78476
#	91024
#	104511
#	116438
#	128724
#	141588
#	153932
#	169286
#	182927
#	198847
#	210124
#	221477
#	234975
#	249049
#	260161
#	275619
#
# Disc length: 3843 seconds
#
# Revision: 0
# Processed by: cddbd v1.4PL0 Copyright (c) Steve Scherf et al.
# Submitted via: CDex 1.40Release
#
DISCID=4a0f0117
DTITLE=Conway Twitty - The Conway Twitty Collection (4 of 4)
DYEAR=1900
DGENRE=Country
TTITLE0=I Want to Know You Before We Make Love
TTITLE1=That's My Job
TTITLE2=Goodbye Time
TTITLE3=Saturday Night Special
TTITLE4=(I Wish I Was) Still in Your Dreams
TTITLE5=I Can't Help It (If I'm Still in Love With You)
TTITLE6=She's Got a Single Thing in Mind
TTITLE7=House on Old Lonesome Road
TTITLE8=Who's Gonna Know
TTITLE9=Crazy in Love
TTITLE10=I Couldn't See You Leavin'
TTITLE11=She's Got a Man on Her Mind
TTITLE12=Who Did They Think He Was
TTITLE13=I'm the Only Thing (I'll Hold Against You)
TTITLE14=Don't It Make You Lonely
TTITLE15=Rainy Night in Georgia
TTITLE16=I Will Always Find My Way to You [#]
TTITLE17=Sweet, Sweet Spirit [#]
TTITLE18=Clinging to a Saving Hand
TTITLE19=Why Me Lord? [Live][#]
TTITLE20=I Don't Know a Thing About Love (The Moon Song)
TTITLE21=Julia
TTITLE22=How Much More Can She Stand
EXTD=ID3G: 2
EXTT0=
EXTT1=
EXTT2=
EXTT3=
EXTT4=
EXTT5=
EXTT6=
EXTT7=
EXTT8=
EXTT9=
EXTT10=
EXTT11=
EXTT12=
EXTT13=
EXTT14=
EXTT15=
EXTT16=
EXTT17=
EXTT18=
EXTT19=
EXTT20=
EXTT21=
EXTT22=
PLAYORDER=
